<svg width="96" height="40" viewBox="0 0 96 40" fill="none" xmlns="http://www.w3.org/2000/svg">
<path d="M9.75 32.17C10.75 32.17 11.63 31.9 12.39 31.36C13.17 30.82 13.56 30.01 13.56 28.93C13.56 27.83 13.14 26.99 12.3 26.41C11.48 25.83 10.3 25.33 8.76 24.91C7.24 24.47 6.13 24.09 5.43 23.77C4.75 23.45 4.1 23.03 3.48 22.51C2.24 21.47 1.62 19.86 1.62 17.68C1.62 15.9 2.25 14.37 3.51 13.09C4.79 11.81 6.53 11.17 8.73 11.17C9.79 11.17 10.89 11.33 12.03 11.65C13.19 11.95 13.91 12.1 14.19 12.1C14.47 12.1 14.72 11.9 14.94 11.5H15.27L15.48 17.56H15C14.04 15.82 13.03 14.43 11.97 13.39C10.93 12.33 9.79 11.8 8.55 11.8C7.33 11.8 6.38 12.09 5.7 12.67C5.02 13.23 4.68 13.99 4.68 14.95C4.68 15.89 5.08 16.62 5.88 17.14C6.7 17.64 7.7 18.05 8.88 18.37C10.06 18.69 10.83 18.91 11.19 19.03C11.57 19.15 12.03 19.32 12.57 19.54C13.13 19.74 13.58 19.96 13.92 20.2C14.28 20.42 14.65 20.71 15.03 21.07C15.43 21.41 15.74 21.79 15.96 22.21C16.5 23.17 16.77 24.31 16.77 25.63C16.77 27.79 16.09 29.53 14.73 30.85C13.39 32.15 11.62 32.8 9.42 32.8C8.28 32.8 6.97 32.65 5.49 32.35C4.03 32.05 3.22 31.9 3.06 31.9C2.78 31.9 2.51 32.2 2.25 32.8H1.83L1.53 25.66H2.04C2.92 27.4 4.04 28.92 5.4 30.22C6.78 31.52 8.23 32.17 9.75 32.17ZM18.2883 10H25.5183V20.98C25.8383 20.06 26.3283 19.32 26.9883 18.76C27.6483 18.2 28.6483 17.92 29.9883 17.92C33.0883 17.92 34.6383 19.59 34.6383 22.93V31.96H36.3183V32.5H27.8283V31.96H29.0583V22.21C29.0583 21.01 28.9783 20.24 28.8183 19.9C28.6583 19.54 28.3683 19.36 27.9483 19.36C27.3083 19.36 26.7383 19.78 26.2383 20.62C25.7583 21.46 25.5183 22.48 25.5183 23.68V31.96H26.8083V32.5H18.2883V31.96H19.9383V10.54H18.2883V10ZM46.4646 26.59V24.04C46.4646 22.1 46.3546 20.69 46.1346 19.81C45.9346 18.91 45.4546 18.46 44.6946 18.46C44.2546 18.46 43.8946 18.59 43.6146 18.85C43.3546 19.09 43.1646 19.5 43.0446 20.08C42.8646 20.98 42.7746 22.35 42.7746 24.19V26.53C42.7746 28.71 42.8346 30.02 42.9546 30.46C43.0946 30.9 43.2346 31.26 43.3746 31.54C43.5946 32.02 44.0246 32.26 44.6646 32.26C45.4446 32.26 45.9546 31.81 46.1946 30.91C46.3746 30.27 46.4646 28.83 46.4646 26.59ZM44.6046 32.8C42.1046 32.8 40.2146 32.16 38.9346 30.88C37.6546 29.6 37.0146 27.77 37.0146 25.39C37.0146 22.99 37.6946 21.15 39.0546 19.87C40.4346 18.57 42.3646 17.92 44.8446 17.92C47.3246 17.92 49.1746 18.52 50.3946 19.72C51.6146 20.9 52.2246 22.71 52.2246 25.15C52.2246 30.25 49.6846 32.8 44.6046 32.8ZM64.0137 24.43C64.0137 22.37 63.9137 20.99 63.7137 20.29C63.5137 19.57 63.1237 19.21 62.5437 19.21C61.9637 19.21 61.4437 19.59 60.9837 20.35C60.5237 21.09 60.2937 22.09 60.2937 23.35V28.84C60.2937 29.7 60.4637 30.43 60.8037 31.03C61.1437 31.63 61.6437 31.93 62.3037 31.93C62.9637 31.93 63.4137 31.49 63.6537 30.61C63.8937 29.73 64.0137 28.19 64.0137 25.99V24.43ZM60.2337 18.22V20.59C61.0137 18.81 62.3937 17.92 64.3737 17.92C66.0937 17.92 67.4237 18.54 68.3637 19.78C69.3237 21.02 69.8037 22.9 69.8037 25.42C69.8037 27.94 69.2837 29.8 68.2437 31C67.2237 32.2 65.6837 32.8 63.6237 32.8C62.6637 32.8 61.9437 32.68 61.4637 32.44C60.9837 32.2 60.5937 31.83 60.2937 31.33V39.1H64.1637V39.64H53.0637V39.1H54.7137V18.76H53.1237V18.22H60.2337ZM75.1104 16.15C74.0504 16.15 73.2904 15.88 72.8304 15.34C72.3904 14.8 72.1704 14.13 72.1704 13.33C72.1704 12.53 72.4104 11.87 72.8904 11.35C73.3904 10.83 74.1404 10.57 75.1404 10.57C76.1404 10.57 76.9004 10.81 77.4204 11.29C77.9404 11.75 78.2004 12.42 78.2004 13.3C78.2004 14.16 77.9504 14.85 77.4504 15.37C76.9504 15.89 76.1704 16.15 75.1104 16.15ZM70.5804 18.22H77.9304V31.96H79.6104V32.5H70.7004V31.96H72.3504V18.76H70.5804V18.22ZM89.9119 26.59V24.04C89.9119 22.1 89.8019 20.69 89.5819 19.81C89.3819 18.91 88.9019 18.46 88.1419 18.46C87.7019 18.46 87.3419 18.59 87.0619 18.85C86.8019 19.09 86.6119 19.5 86.4919 20.08C86.3119 20.98 86.2219 22.35 86.2219 24.19V26.53C86.2219 28.71 86.2819 30.02 86.4019 30.46C86.5419 30.9 86.6819 31.26 86.8219 31.54C87.0419 32.02 87.4719 32.26 88.1119 32.26C88.8919 32.26 89.4019 31.81 89.6419 30.91C89.8219 30.27 89.9119 28.83 89.9119 26.59ZM88.0519 32.8C85.5519 32.8 83.6619 32.16 82.3819 30.88C81.1019 29.6 80.4619 27.77 80.4619 25.39C80.4619 22.99 81.1419 21.15 82.5019 19.87C83.8819 18.57 85.8119 17.92 88.2919 17.92C90.7719 17.92 92.6219 18.52 93.8419 19.72C95.0619 20.9 95.6719 22.71 95.6719 25.15C95.6719 30.25 93.1319 32.8 88.0519 32.8Z" fill="#2D396B"/>
</svg>
